<svg width="14" height="15" fill="none" xmlns="http://www.w3.org/2000/svg"><path d="M9.283 7.286A2.29 2.29 0 016.998 9.57a2.29 2.29 0 01-2.286-2.285A2.29 2.29 0 016.998 5a2.29 2.29 0 012.285 2.286zm1.233 0a3.513 3.513 0 00-3.518-3.518A3.513 3.513 0 003.48 7.286a3.513 3.513 0 003.518 3.518 3.513 3.513 0 003.518-3.518zm.964-3.661a.82.82 0 00-.822-.821.82.82 0 00-.82.821.82.82 0 00.82.821.82.82 0 00.822-.821zM6.998 1.661c1 0 3.143-.08 4.044.276.313.125.545.277.786.518s.393.474.518.786c.357.902.277 3.045.277 4.045s.08 3.143-.277 4.044a2.192 2.192 0 01-.518.786 2.192 2.192 0 01-.786.518c-.901.357-3.044.277-4.044.277-1 0-3.143.08-4.045-.277a2.193 2.193 0 01-.786-.518 2.193 2.193 0 01-.517-.786c-.358-.901-.277-3.044-.277-4.044 0-1-.08-3.143.277-4.045.125-.312.276-.545.517-.786.241-.24.474-.393.786-.518.902-.357 3.045-.276 4.045-.276zm6.857 5.625c0-.947.009-1.884-.045-2.83-.053-1.099-.303-2.072-1.107-2.876C11.9.777 10.926.527 9.828.473 8.882.42 7.944.43 6.998.43c-.947 0-1.884-.01-2.83.044-1.1.053-2.073.303-2.877 1.106C.49 2.384.24 3.357.185 4.455.132 5.402.141 6.34.141 7.285c0 .947-.01 1.885.044 2.831.054 1.098.304 2.072 1.107 2.875.804.804 1.777 1.054 2.875 1.107.947.054 1.884.045 2.83.045.947 0 1.885.009 2.831-.045 1.098-.053 2.072-.303 2.875-1.107.804-.803 1.054-1.777 1.107-2.875.054-.946.045-1.884.045-2.83z" fill="#D7B399"/></svg>