<svg width="30" height="28" fill="none" xmlns="http://www.w3.org/2000/svg"><path d="M22.294 10.49l-6.056-9.082c-.275-.275-.688-.55-1.1-.55-.413 0-.826.137-1.101.55l-6.055 9.083H1.376C.55 10.49 0 11.04 0 11.867v.413l3.44 12.798c.276 1.101 1.377 2.064 2.615 2.064h17.89c1.238 0 2.34-.825 2.615-2.064L30 12.28v-.413c0-.826-.55-1.376-1.376-1.376h-6.33zm-11.285 0l4.129-6.054 4.128 6.055H11.01zm4.129 11.01a2.76 2.76 0 01-2.753-2.752 2.76 2.76 0 012.753-2.753 2.76 2.76 0 012.752 2.753 2.76 2.76 0 01-2.752 2.752z" fill="#212121"/></svg>