<svg width="18" height="11" fill="none" xmlns="http://www.w3.org/2000/svg"><path d="M17.546.929s-.125-.358-.902-.26l-2.571.018c-.197-.026-.34.054-.34.054s-.152.08-.223.277c-.42 1.08-.955 2.009-.955 2.009-1.143 1.946-1.607 2.053-1.795 1.928-.438-.276-.321-1.125-.321-1.732 0-1.893.285-2.678-.563-2.884C9.6.277 9.394.232 8.671.223c-.92-.009-1.697 0-2.134.214-.295.143-.518.465-.384.483.17.026.553.107.759.384 0 0 .223.366.259 1.17.098 2.222-.357 2.5-.357 2.5-.349.187-.956-.126-1.849-1.965 0 0-.517-.91-.92-1.91-.07-.188-.214-.286-.214-.286S3.671.688 3.44.651L.992.67C.617.67.483.84.483.84S.35.981.474 1.276c1.911 4.49 4.09 6.74 4.09 6.74s1.99 2.081 4.25 1.938H9.84a.77.77 0 00.474-.196s.143-.16.133-.455c-.017-1.375.626-1.58.626-1.58.624-.197 1.428 1.33 2.285 1.919 0 0 .652.446 1.143.348l2.286-.036c1.205-.009.634-1.009.634-1.009-.045-.08-.33-.696-1.706-1.973-1.428-1.33-1.24-1.116.491-3.42C17.26 2.153 17.68 1.296 17.546.93z" fill="#D7B399"/></svg>